# xmcd
#
# Track frame offsets: 
#        150
#        11423
#        30210
#        44934
#        59065
#        74999
#        101163
#        112494
#        129102
#        154415
#        174947
#        200044
#        222084
#        232720
#        253743
#        272390
#        288557
#
# Disc length: 4020 seconds
#
# Revision: 1
# Processed by: cddbd v1.5.2PL0 Copyright (c) Steve Scherf et al.
# Submitted via: ExactAudioCopy v1.1
#
DISCID=050fb211
DTITLE=Rainer - Rainer, The Best of  - 17 Miracles   
DYEAR=2006
DGENRE=Blues
TTITLE0=Rudy With A Flashlight
TTITLE1=The Farm 
TTITLE2=Losing Ground
TTITLE3=Junkpile
TTITLE4=The Good Book
TTITLE5=Within You Without You
TTITLE6=Something's Got To Be Done
TTITLE7=River Of Real Time
TTITLE8=POwder Keg
TTITLE9=One Wrong Turn
TTITLE10=Life Is Fine
TTITLE11=Inner Flame
TTITLE12=Rude World
TTITLE13=One Man Crusade
TTITLE14=The Oasis
TTITLE15=Love Buys Love
TTITLE16=Miss The Mississippi
EXTD=YEAR: 2006
EXTT0=
EXTT1=
EXTT2=
EXTT3=
EXTT4=
EXTT5=
EXTT6=
EXTT7=
EXTT8=
EXTT9=
EXTT10=
EXTT11=
EXTT12=
EXTT13=
EXTT14=
EXTT15=
EXTT16=
PLAYORDER=
